HIERARCHY
ROOT Hips
{
	OFFSET 0.000000 0.000000 0.000000
	CHANNELS 6 Xposition Yposition Zposition Zrotation Yrotation Xrotation 
	JOINT LowerBack
	{
		OFFSET 0.000000 0.000000 0.000000
		CHANNELS 3 Zrotation Yrotation Xrotation
		JOINT Spine
		{
			OFFSET 0.028270 2.035590 -0.193380
			CHANNELS 3 Zrotation Yrotation Xrotation
			JOINT Spine1
			{
				OFFSET 0.056720 2.048850 -0.042750
				CHANNELS 3 Zrotation Yrotation Xrotation
				JOINT Neck
				{
					OFFSET 0.000000 0.000000 0.000000
					CHANNELS 3 Zrotation Yrotation Xrotation
					JOINT Neck1
					{
						OFFSET -0.054170 1.746240 0.172020
						CHANNELS 3 Zrotation Yrotation Xrotation
						JOINT Head
						{
							OFFSET 0.104070 1.761360 -0.123970
							CHANNELS 3 Zrotation Yrotation Xrotation
							End Site
							{
								OFFSET 0.000000 0.000000 0.000000
							}
						}
					}
				}
				JOINT LeftShoulder
				{
					OFFSET 0.000000 0.000000 0.000000
					CHANNELS 3 Zrotation Yrotation Xrotation
					JOINT LeftArm
					{
						OFFSET 3.362410 1.200890 -0.311210
						CHANNELS 3 Zrotation Yrotation Xrotation
						JOINT LeftForeArm
						{
							OFFSET 4.983000 -0.000000 -0.000000
							CHANNELS 3 Zrotation Yrotation Xrotation
							JOINT LeftHand
							{
								OFFSET 3.483560 -0.000000 -0.000000
								CHANNELS 3 Zrotation Yrotation Xrotation
								JOINT LeftFingerBase
								{
									OFFSET 0.000000 0.000000 0.000000
									CHANNELS 3 Zrotation Yrotation Xrotation
									JOINT LeftHandIndex1
									{
										OFFSET 0.715260 -0.000000 -0.000000
										CHANNELS 3 Zrotation Yrotation Xrotation
										End Site
										{
											OFFSET 0.000000 0.000000 0.000000
										}
									}
								}
								JOINT LThumb
								{
									OFFSET 0.000000 0.000000 0.000000
									CHANNELS 3 Zrotation Yrotation Xrotation
									End Site
									{
										OFFSET 0.000000 0.000000 0.000000
									}
								}
							}
						}
					}
				}
				JOINT RightShoulder
				{
					OFFSET 0.000000 0.000000 0.000000
					CHANNELS 3 Zrotation Yrotation Xrotation
					JOINT RightArm
					{
						OFFSET -3.136600 1.374050 -0.404650
						CHANNELS 3 Zrotation Yrotation Xrotation
						JOINT RightForeArm
						{
							OFFSET -5.241900 -0.000000 -0.000000
							CHANNELS 3 Zrotation Yrotation Xrotation
							JOINT RightHand
							{
								OFFSET -3.444170 -0.000000 -0.000000
								CHANNELS 3 Zrotation Yrotation Xrotation
								JOINT RightFingerBase
								{
									OFFSET 0.000000 0.000000 0.000000
									CHANNELS 3 Zrotation Yrotation Xrotation
									JOINT RightHandIndex1
									{
										OFFSET -0.622530 -0.000000 -0.000000
										CHANNELS 3 Zrotation Yrotation Xrotation
										End Site
										{
											OFFSET 0.000000 0.000000 0.000000
										}
									}
								}
								JOINT RThumb
								{
									OFFSET 0.000000 0.000000 0.000000
									CHANNELS 3 Zrotation Yrotation Xrotation
									End Site
									{
										OFFSET 0.000000 0.000000 0.000000
									}
								}
							}
						}
					}
				}
			}
		}
	}
}
}
MOTION
Frames: 17
Frame Time: 0.008333
6.224177 16.902313 -7.122813 -171.991734 39.868383 -165.506814 8.582791 -5.559298 -8.914278 1.631453 -6.808320 -4.447481 -5.904259 -6.899418 0.647569 8.412355 -17.627964 -7.391557 -3.622564 -0.293714 0.189578 0.000000 0.000000 0.000000 -6.761940 -0.773174 -0.220181 -74.834033 -12.051545 14.709418 -2.058265 -48.646948 -0.028455 7.054725 -2.758745 -0.188088 -0.071914 0.281396 0.000001 0.000000 0.000000 0.000000 0.000000 0.000000 0.000000 15.533764 -17.679549 0.247399 55.054046 -5.670873 -17.127858 2.837643 39.341424 0.005423 -2.621299 3.698272 -0.090850 0.136588 -0.093846 0.000000 0.000000 0.000000 0.000000 0.000000 0.000000 0.000000 
6.303472 16.919643 -7.245876 -171.565940 39.346876 -165.401404 8.856380 -5.486186 -8.833548 1.668160 -6.765342 -4.434744 -5.935084 -6.852708 0.655824 8.508777 -17.503745 -7.412914 -3.641445 -0.295111 0.183053 0.000000 0.000000 0.000000 -6.667859 -0.594597 -0.220075 -75.377905 -11.457275 14.371502 -2.043400 -47.439079 -0.029208 7.444289 -2.696658 -0.193691 -0.071949 0.270390 0.000000 0.000000 0.000000 0.000000 0.000000 0.000000 0.000000 15.729225 -17.530258 0.199674 55.025418 -5.175882 -16.418550 2.845473 39.251022 0.005427 -2.636785 3.700146 -0.091346 0.136002 -0.092673 0.000000 0.000000 0.000000 0.000000 0.000000 0.000000 0.000000 
6.382074 16.937551 -7.365078 -171.175493 38.768871 -165.301916 9.083520 -5.415102 -8.758107 1.693688 -6.719422 -4.419054 -5.972869 -6.802879 0.675454 8.626995 -17.406603 -7.450366 -3.659709 -0.296342 0.172392 0.000000 0.000000 0.000000 -6.516387 -0.404346 -0.217470 -75.884705 -10.868412 14.095520 -2.027318 -46.211742 -0.029690 7.809976 -2.591419 -0.195290 -0.071778 0.258830 0.000000 0.000000 0.000000 0.000000 0.000000 0.000000 0.000000 15.950476 -17.400125 0.151799 55.066757 -4.662431 -15.656249 2.854740 39.171353 0.005471 -2.612152 3.695759 -0.090341 0.135136 -0.091355 0.000000 0.000000 0.000000 0.000000 0.000000 0.000000 0.000000 
6.459866 16.955909 -7.480477 -170.829092 38.134270 -165.209850 9.264612 -5.343880 -8.693030 1.708096 -6.668887 -4.401949 -6.017454 -6.748318 0.704181 8.761128 -17.334262 -7.500815 -3.677729 -0.297478 0.158441 0.000000 0.000000 0.000000 -6.323818 -0.213110 -0.211055 -76.336595 -10.278980 13.885930 -2.011083 -44.989988 -0.029831 8.128838 -2.443049 -0.191886 -0.071254 0.246894 0.000000 0.000000 0.000000 0.000000 0.000000 0.000000 0.000000 16.190533 -17.286300 0.105744 55.179854 -4.138894 -14.860286 2.865039 39.105612 0.005562 -2.550086 3.693072 -0.088135 0.134007 -0.090036 0.000000 0.000000 0.000000 0.000000 0.000000 0.000000 0.000000 
6.536459 16.974517 -7.592480 -170.522643 37.443303 -165.118883 9.409352 -5.269558 -8.642595 1.713327 -6.612271 -4.384759 -6.068860 -6.687568 0.740814 8.905278 -17.281988 -7.562424 -3.695906 -0.298567 0.141635 0.000000 0.000000 0.000000 -6.111269 -0.017033 -0.199507 -76.719116 -9.695460 13.752854 -1.996471 -43.791169 -0.029599 8.381899 -2.254730 -0.183075 -0.070351 0.234799 -0.000000 0.000000 0.000000 0.000000 0.000000 0.000000 0.000000 16.443647 -17.182810 0.062278 55.358095 -3.613086 -14.040281 2.875543 39.060031 0.005696 -2.461019 3.697873 -0.085226 0.132678 -0.088826 0.000000 0.000000 0.000000 0.000000 0.000000 0.000000 0.000000 
6.611518 16.993287 -7.701372 -170.258102 36.698350 -165.029240 9.521288 -5.190162 -8.608563 1.710051 -6.548134 -4.368877 -6.126766 -6.619227 0.781674 9.053053 -17.241349 -7.630003 -3.714812 -0.299708 0.123356 0.000000 0.000000 0.000000 -5.894747 0.172679 -0.182143 -77.020050 -9.106120 13.686770 -1.984150 -42.641343 -0.028988 8.553760 -2.032295 -0.169157 -0.068963 0.222711 0.000000 0.000000 0.000000 0.000000 0.000000 0.000000 0.000000 16.701949 -17.081477 0.023066 55.599390 -3.094938 -13.214735 2.885743 39.034632 0.005872 -2.352709 3.717636 -0.082017 0.131195 -0.087854 0.000000 0.000000 0.000000 0.000000 0.000000 0.000000 0.000000 
6.684687 17.012121 -7.807555 -170.030426 35.902871 -164.937197 9.609685 -5.103839 -8.591654 1.700210 -6.475711 -4.355142 -6.190687 -6.542534 0.825074 9.199314 -17.202941 -7.700687 -3.734905 -0.300955 0.104300 0.000000 0.000000 0.000000 -5.690845 0.361990 -0.158365 -77.232452 -8.514929 13.684994 -1.975393 -41.553944 -0.028025 8.637268 -1.785366 -0.151129 -0.067139 0.210814 0.000000 0.000000 0.000000 0.000000 0.000000 0.000000 0.000000 16.960379 -16.972521 -0.011802 55.893980 -2.591517 -12.389436 2.894722 39.032575 0.006080 -2.238779 3.755493 -0.079005 0.129635 -0.087187 0.000000 0.000000 0.000000 0.000000 0.000000 0.000000 0.000000 
6.755663 17.030916 -7.911369 -169.836320 35.060979 -164.842495 9.680454 -5.009621 -8.590274 1.685092 -6.394499 -4.344193 -6.259861 -6.457014 0.868120 9.339246 -17.155970 -7.769994 -3.756556 -0.302374 0.085631 0.000000 0.000000 0.000000 -5.510828 0.548480 -0.128070 -77.353263 -7.915800 13.731151 -1.970585 -40.545240 -0.026762 8.631691 -1.525014 -0.130393 -0.064902 0.199236 -0.000000 0.000000 0.000000 0.000000 0.000000 0.000000 0.000000 17.212600 -16.845715 -0.041821 56.234898 -2.110202 -11.573763 2.901802 39.053265 0.006310 -2.129966 3.813887 -0.076392 0.128059 -0.086885 0.000000 0.000000 0.000000 0.000000 0.000000 0.000000 0.000000 
6.824384 17.049540 -8.012907 -169.677705 34.179038 -164.750585 9.735444 -4.907807 -8.599071 1.665166 -6.304477 -4.335462 -6.333407 -6.362682 0.909756 9.471240 -17.087461 -7.835311 -3.780195 -0.304004 0.067959 0.000000 0.000000 0.000000 -5.360505 0.744806 -0.091004 -77.383658 -7.318467 13.817375 -1.970717 -39.615907 -0.025269 8.545451 -1.264438 -0.108647 -0.062426 0.188082 0.000000 0.000000 0.000000 0.000000 0.000000 0.000000 0.000000 17.457847 -16.688058 -0.068050 56.610741 -1.659854 -10.769192 2.905742 39.101837 0.006544 -2.038817 3.890824 -0.074676 0.126521 -0.086943 0.000000 0.000000 0.000000 0.000000 0.000000 0.000000 0.000000 
6.890557 17.067844 -8.112611 -169.542090 33.260934 -164.655462 9.785904 -4.797183 -8.617999 1.643129 -6.205523 -4.330305 -6.409300 -6.259453 0.945458 9.587927 -16.990349 -7.890272 -3.805288 -0.305866 0.053032 0.000000 0.000000 0.000000 -5.244773 0.929958 -0.048234 -77.327893 -6.695301 13.898073 -1.974196 -38.789414 -0.023619 8.390381 -1.015801 -0.087493 -0.059671 0.177391 0.000000 0.000000 0.000000 0.000000 0.000000 0.000000 0.000000 17.681216 -16.494653 -0.088500 57.019921 -1.238527 -9.986375 2.906972 39.166184 0.006777 -1.967297 3.985561 -0.073860 0.125055 -0.087402 0.000000 0.000000 0.000000 0.000000 0.000000 0.000000 0.000000 
6.954188 17.085628 -8.210499 -169.430324 32.313836 -164.563813 9.831093 -4.678865 -8.640021 1.619016 -6.097989 -4.327492 -6.486365 -6.147722 0.975151 9.689924 -16.855614 -7.933819 -3.831762 -0.307942 0.041052 0.000000 0.000000 0.000000 -5.161768 1.117977 -0.000083 -77.193781 -6.057964 13.961499 -1.981445 -38.056964 -0.021894 8.187449 -0.791480 -0.068530 -0.056866 0.167190 -0.000000 0.000000 0.000000 0.000000 0.000000 0.000000 0.000000 17.883334 -16.256655 -0.104522 57.451663 -0.848940 -9.221457 2.904627 39.248697 0.006988 -1.922681 4.092354 -0.074141 0.123687 -0.088208 0.000000 0.000000 0.000000 0.000000 0.000000 0.000000 0.000000 
7.015274 17.102719 -8.306743 -169.335154 31.343157 -164.474562 9.875786 -4.552635 -8.662473 1.594224 -5.981832 -4.327017 -6.562530 -6.027478 0.997181 9.774440 -16.683170 -7.963474 -3.858695 -0.310174 0.032693 0.000000 0.000000 0.000000 -5.109208 1.299324 0.051895 -76.990027 -5.392942 13.973074 -1.991139 -37.426060 -0.020168 7.959074 -0.600215 -0.052564 -0.054092 0.157436 -0.000000 0.000000 0.000000 0.000000 0.000000 0.000000 0.000000 18.056026 -15.975785 -0.115193 57.901029 -0.480622 -8.474010 2.899351 39.337431 0.007172 -1.904244 4.206629 -0.075422 0.122439 -0.089334 0.000000 0.000000 0.000000 0.000000 0.000000 0.000000 0.000000 
7.074021 17.118993 -8.401226 -169.261065 30.357502 -164.397894 9.912916 -4.420160 -8.676043 1.567201 -5.857121 -4.326673 -6.637695 -5.898848 1.013344 9.846832 -16.458931 -7.980066 -3.886431 -0.312547 0.027599 0.000000 0.000000 0.000000 -5.077403 1.506383 0.108174 -76.726982 -4.734791 13.945174 -2.004525 -36.864497 -0.018514 7.733409 -0.449813 -0.040190 -0.051694 0.148125 0.000000 0.000000 0.000000 0.000000 0.000000 0.000000 0.000000 18.208344 -15.636039 -0.123639 58.355118 -0.148113 -7.741576 2.889437 39.450198 0.007304 -1.912449 4.317595 -0.077702 0.121248 -0.090670 0.000000 0.000000 0.000000 0.000000 0.000000 0.000000 0.000000 
7.130676 17.134276 -8.493956 -169.205771 29.364013 -164.335661 9.942824 -4.281034 -8.678097 1.538484 -5.723137 -4.326222 -6.709480 -5.761141 1.022476 9.905348 -16.193241 -7.982776 -3.913640 -0.314959 0.026029 0.000000 0.000000 0.000000 -5.060606 1.720161 0.166517 -76.412710 -4.063088 13.842414 -2.019723 -36.381160 -0.016972 7.531761 -0.342389 -0.031412 -0.049668 0.139140 0.000000 0.000000 0.000000 0.000000 0.000000 0.000000 0.000000 18.332881 -15.250132 -0.128012 58.811785 0.169761 -7.021501 2.876504 39.567945 0.007386 -1.940979 4.423569 -0.080681 0.120129 -0.092203 0.000000 0.000000 0.000000 0.000000 0.000000 0.000000 0.000000 
7.185303 17.148480 -8.585000 -169.166167 28.370065 -164.290088 9.962516 -4.135035 -8.664484 1.507236 -5.579036 -4.324535 -6.778387 -5.613543 1.026117 9.954639 -15.874339 -7.972431 -3.940620 -0.317403 0.027657 0.000000 0.000000 0.000000 -5.049064 1.967747 0.227312 -76.056914 -3.409510 13.682670 -2.037526 -35.943869 -0.015582 7.377093 -0.278962 -0.026129 -0.048252 0.130460 0.000000 0.000000 0.000000 0.000000 0.000000 0.000000 0.000000 18.437081 -14.803491 -0.130832 59.260091 0.456589 -6.318551 2.859345 39.709932 0.007405 -1.982145 4.515129 -0.083860 0.118970 -0.093848 0.000000 0.000000 0.000000 0.000000 0.000000 0.000000 0.000000 
7.238158 17.161445 -8.674506 -169.133685 27.383046 -164.253601 9.980385 -3.979307 -8.639211 1.475970 -5.423127 -4.322343 -6.840971 -5.454285 1.024202 9.989736 -15.537514 -7.951446 -3.964741 -0.319671 0.031950 0.000000 0.000000 0.000000 -5.043727 2.208057 0.286202 -75.663352 -2.731365 13.420854 -2.054691 -35.582092 -0.014337 7.281112 -0.254314 -0.023645 -0.047243 0.121907 0.000000 0.000000 0.000000 0.000000 0.000000 0.000000 0.000000 18.506736 -14.335686 -0.127679 59.702124 0.766366 -5.619664 2.842125 39.832802 0.007396 -2.028035 4.598634 -0.087238 0.117887 -0.095648 0.000000 0.000000 0.000000 0.000000 0.000000 0.000000 0.000000 
7.289603 17.173259 -8.762268 -169.119693 26.414004 -164.239097 9.980122 -3.814495 -8.593809 1.440442 -5.253730 -4.317439 -6.900107 -5.281785 1.019230 10.021252 -15.150748 -7.920539 -3.988232 -0.321890 0.038505 0.000000 0.000000 0.000000 -5.027612 2.498382 0.346203 -75.240204 -2.097580 13.116992 -2.074410 -35.232898 -0.013246 7.258273 -0.265693 -0.023757 -0.046984 0.113527 -0.000000 0.000000 0.000000 0.000000 0.000000 0.000000 0.000000 18.563949 -13.807733 -0.124307 60.121551 1.044936 -4.941834 2.820908 39.990443 0.007330 -2.071475 4.662385 -0.090217 0.116650 -0.097501 0.000000 0.000000 0.000000 0.000000 0.000000 0.000000 0.000000 
